<svg xmlns="http://www.w3.org/2000/svg" width="12" height="12" fill="currentColor" viewBox="0 0 12 12">
  <path
    d="M6 0a6 6 0 1 0 0 12A6 6 0 0 0 6 0M3.662 1.298a.36.36 0 0 0 .105.218.365.365 0 0 1-.095.585l-.218.109a.525.525 0 0 0-.141.101l-.36.36a.75.75 0 0 1-.767.181l-.015-.006a.75.75 0 0 0-.346-.03 5.25 5.25 0 0 1 1.837-1.52m-2.25 7.256.645-.162a.75.75 0 0 0 .569-.727v-.138a.75.75 0 0 1 .334-.624l.03-.02a.75.75 0 0 0 .114-1.155L2.341 4.966a.31.31 0 0 1 .406-.468l.818.614a.375.375 0 0 0 .392.035.375.375 0 0 1 .543.336v.341a.6.6 0 0 0 .098.325l.596.894a.75.75 0 0 1 .087.178l.547 1.643a.75.75 0 0 0 .712.512h.043a.75.75 0 0 0 .712-.513l.547-1.642a.75.75 0 0 1 .087-.178l.593-.89a.337.337 0 0 1 .294-.16.34.34 0 0 1 .294.163c.418.656 1.223 1.711 1.774 1.711l.03-.001a5.253 5.253 0 0 1-9.493.678Z" />
</svg>