<svg xmlns="http://www.w3.org/2000/svg" width="16" height="16" viewBox="0 0 16 16" fill="currentColor">
    <path
        d="M 7.28125 0.558594 C 8.390625 0.355469 9.351562 0.621094 10.160156 1.359375 C 10.914062 0.601562 11.820312 0.363281 12.878906 0.640625 C 13.902344 0.996094 14.378906 1.714844 14.320312 2.800781 C 14.351562 3.328125 14.21875 3.808594 13.921875 4.238281 C 12.925781 5.5 11.78125 6.59375 10.480469 7.519531 C 10.265625 7.625 10.054688 7.625 9.839844 7.519531 C 8.3125 6.472656 7.058594 5.167969 6.078125 3.601562 C 5.6875 2.253906 6.089844 1.238281 7.28125 0.558594 Z M 7.28125 0.558594 " />
    <path
        d="M 14.160156 8.558594 C 15.359375 8.347656 15.8125 8.828125 15.519531 10 C 14.105469 11.414062 12.691406 12.828125 11.28125 14.238281 C 9.09375 14.292969 6.90625 14.347656 4.71875 14.398438 C 4.117188 14.707031 3.585938 15.109375 3.121094 15.601562 C 2.105469 14.691406 1.148438 13.734375 0.238281 12.71875 C 1.347656 11.425781 2.574219 10.28125 3.921875 9.28125 C 5.894531 9.171875 7.867188 9.171875 9.839844 9.28125 C 10.265625 9.8125 10.265625 10.347656 9.839844 10.878906 C 8.9375 11.113281 8.03125 11.328125 7.121094 11.519531 C 7.28125 11.679688 7.441406 11.839844 7.601562 12 C 8.667969 12.105469 9.734375 12.105469 10.800781 12 C 11.953125 10.875 13.074219 9.726562 14.160156 8.558594 Z M 14.160156 8.558594 " />
</svg>